<svg xmlns="http://www.w3.org/2000/svg" width="44" height="44" viewBox="0 0 44 44"><rect width="100%" height="100%" fill="#141414"/><path fill="#F5C518" d="M16.235 27.645h2.99q.82 0 1.38-.2t.9-.53.48-.77q.15-.44.15-.93 0-.52-.16-.93-.17-.41-.52-.7-.35-.3-.91-.45-.55-.15-1.33-.15h-2.98zm2.51-11.31h-2.51v4.6h2.35q1.52 0 2.29-.55.78-.55.78-1.75 0-1.24-.71-1.77-.7-.53-2.2-.53m-5.47-2.29h5.47q1.57 0 2.68.3t1.82.85 1.04 1.33.33 1.76q0 .56-.17 1.07-.16.51-.51.96-.35.44-.88.81-.53.36-1.27.61 3.28.74 3.28 3.55 0 1.01-.39 1.87-.38.85-1.12 1.47-.74.63-1.81.98-1.08.35-2.47.35h-6zm17.45 0v15.91h-2.97v-15.91z"/></svg>